# xmcd
#
# Track frame offsets:
#	150
#	16362
#	29917
#	52479
#	71213
#	87483
#	118950
#	136631
#	149360
#	163990
#
# Disc length: 2422 seconds
#
# Revision: 1
# Processed by: cddbd v1.5.2PL0 Copyright (c) Steve Scherf et al.
# Submitted via: audiograbber 1.83.01
#
DISCID=a209740a
DTITLE=Layline of Blues - Think!
DYEAR=2008
DGENRE=Blues
TTITLE0=Wild Night
TTITLE1=Come Togehter
TTITLE2=Higher Ground
TTITLE3=Check Out Her Mama
TTITLE4=Birdge Over Troubled Water
TTITLE5=Real Mother For Ya
TTITLE6=Love For Sale
TTITLE7=Harlem Nocturne
TTITLE8=Think!
TTITLE9=Queen Bee
EXTD=
EXTT0=
EXTT1=
EXTT2=
EXTT3=
EXTT4=
EXTT5=
EXTT6=
EXTT7=
EXTT8=
EXTT9=
PLAYORDER=
